<?xml version="1.0" encoding="UTF-8" standalone="no"?>
<!-- Generator: Adobe Illustrator 16.0.0, SVG Export Plug-In . SVG Version: 6.00 Build 0)  -->

<svg
   xmlns:osb="http://www.openswatchbook.org/uri/2009/osb"
   xmlns:dc="http://purl.org/dc/elements/1.1/"
   xmlns:cc="http://creativecommons.org/ns#"
   xmlns:rdf="http://www.w3.org/1999/02/22-rdf-syntax-ns#"
   xmlns:svg="http://www.w3.org/2000/svg"
   xmlns="http://www.w3.org/2000/svg"
   xmlns:xlink="http://www.w3.org/1999/xlink"
   xmlns:sodipodi="http://sodipodi.sourceforge.net/DTD/sodipodi-0.dtd"
   xmlns:inkscape="http://www.inkscape.org/namespaces/inkscape"
   version="1.1"
   id="Capa_1"
   x="0px"
   y="0px"
   width="575.387px"
   height="575.386px"
   viewBox="0 0 575.387 575.386"
   style="enable-background:new 0 0 575.387 575.386;"
   xml:space="preserve"
   sodipodi:docname="ds4-symbolic-50.svg"
   inkscape:version="0.92.2 2405546, 2018-03-11"><metadata
     id="metadata73"><rdf:RDF><cc:Work
         rdf:about=""><dc:format>image/svg+xml</dc:format><dc:type
           rdf:resource="http://purl.org/dc/dcmitype/StillImage" /><dc:title></dc:title></cc:Work></rdf:RDF></metadata><defs
     id="defs71"><linearGradient
       id="linearGradient4594"
       osb:paint="solid"><stop
         style="stop-color:#000000;stop-opacity:1;"
         offset="0"
         id="stop4592" /></linearGradient><linearGradient
       id="linearGradient4586"
       osb:paint="solid"><stop
         style="stop-color:#000000;stop-opacity:1;"
         offset="0"
         id="stop4584" /></linearGradient><linearGradient
       inkscape:collect="always"
       xlink:href="#linearGradient4586"
       id="linearGradient4588"
       x1="141.323"
       y1="396.1295"
       x2="441.79"
       y2="396.1295"
       gradientUnits="userSpaceOnUse" /></defs><sodipodi:namedview
     pagecolor="#ffffff"
     bordercolor="#666666"
     borderopacity="1"
     objecttolerance="10"
     gridtolerance="10"
     guidetolerance="10"
     inkscape:pageopacity="0"
     inkscape:pageshadow="2"
     inkscape:window-width="1920"
     inkscape:window-height="1016"
     id="namedview69"
     showgrid="true"
     inkscape:zoom="3.2812756"
     inkscape:cx="315.40476"
     inkscape:cy="156.79826"
     inkscape:window-x="0"
     inkscape:window-y="27"
     inkscape:window-maximized="1"
     inkscape:current-layer="g34"
     showguides="true"
     inkscape:guide-bbox="true"
     inkscape:snap-global="false"><inkscape:grid
       type="xygrid"
       id="grid4617" /><sodipodi:guide
       position="285,170"
       orientation="1,0"
       id="guide4623"
       inkscape:locked="false" /><sodipodi:guide
       position="310,170"
       orientation="1,0"
       id="guide4631"
       inkscape:locked="false" /><sodipodi:guide
       position="335,170"
       orientation="1,0"
       id="guide4633"
       inkscape:locked="false" /><sodipodi:guide
       position="360,170"
       orientation="1,0"
       id="guide4635"
       inkscape:locked="false" /><sodipodi:guide
       position="385,180"
       orientation="1,0"
       id="guide4637"
       inkscape:locked="false" /><sodipodi:guide
       position="259.99999,280.00001"
       orientation="1,0"
       id="guide4639"
       inkscape:locked="false" /><sodipodi:guide
       position="234.99999,245.00001"
       orientation="1,0"
       id="guide4641"
       inkscape:locked="false" /><sodipodi:guide
       position="209.99999,240.00001"
       orientation="1,0"
       id="guide4643"
       inkscape:locked="false" /><sodipodi:guide
       position="184.99999,250.00001"
       orientation="1,0"
       id="guide4645"
       inkscape:locked="false" /></sodipodi:namedview><g
     id="g36"><g
       id="g34"><path
         d="M106.691,220.332c-4.572,3.36-9.29,7.313-9.97,8.678c-1.23,2.454-2.943,15.722-2.625,20.276    c0.171,2.436,4.407,3.678,12.571,3.684l0.043,3.06v-3.06c8.17-0.006,12.393-1.242,12.57-3.684    c0.331-4.547-1.389-17.81-2.62-20.276C116.037,227.768,111.661,223.986,106.691,220.332z"
         id="path2" /><path
         d="M194.948,133.061v82.62c0,5.508,4.48,9.994,9.994,9.994h164.481c5.508,0,9.994-4.479,9.994-9.994v-82.62    c0-2.631-1.047-5.019-2.718-6.805h-179.04C195.995,128.042,194.948,130.423,194.948,133.061z"
         id="path4" /><path
         d="M190.896,262.542c-15.024,0-27.252,12.228-27.252,27.259c0,15.024,12.228,27.252,27.252,27.252    c15.031,0,27.258-12.228,27.258-27.252C218.155,274.77,205.927,262.542,190.896,262.542z"
         id="path6" /><path
         d="M287.183,248.594c-17.424,0-31.598,14.174-31.598,31.598c0,17.424,14.174,31.598,31.598,31.598    s31.598-14.174,31.598-31.598C318.78,262.769,304.606,248.594,287.183,248.594z M279.08,292.065    c-0.012,0.215-0.453,0.545-0.734,0.594c-4.982,0.832-9.835,0.3-14.541-1.523c-0.404-0.159-0.784-0.398-1.139-0.649    c-1.793-1.267-1.787-2.949,0.043-4.125c0.795-0.509,1.646-0.979,2.528-1.304c4.522-1.671,9.069-3.287,13.849-5.006    c0,1.677,0.031,3.225-0.037,4.767c-0.012,0.208-0.502,0.472-0.814,0.588c-2.503,0.918-5.024,1.793-7.527,2.717    c-0.582,0.215-1.108,0.576-1.659,0.863c0.012,0.141,0.024,0.281,0.037,0.422c0.551,0.19,1.114,0.576,1.646,0.539    c1.548-0.11,3.109-0.288,4.621-0.624c1.224-0.275,2.393-0.82,3.77-1.316C279.116,289.464,279.147,290.768,279.08,292.065z     M289.264,265.571c-0.172,0.416-0.129,0.93-0.129,1.408c-0.006,9.694,0,19.388,0,29.083c0,0.459,0,0.924,0,1.554    c-2.846-0.899-5.483-1.731-8.115-2.595c-0.208-0.067-0.392-0.397-0.459-0.637c-0.08-0.306-0.031-0.654-0.031-0.985    c0.012-11.451,0.025-22.901,0.037-34.352c0-0.398,0-0.795,0-1.346c0.783,0.153,1.462,0.238,2.111,0.428    c3.715,1.089,7.429,2.172,11.126,3.329c0.967,0.3,1.878,0.814,2.771,1.31c2.92,1.622,4.603,4.094,5.025,7.417    c0.287,2.301,0.392,4.584-0.35,6.836c-1.261,3.807-4.761,4.877-8.451,3.121c-0.288-0.135-0.472-0.765-0.478-1.169    c-0.03-3.88,0.012-7.754-0.043-11.634c-0.012-0.765-0.227-1.609-0.605-2.264c-0.227-0.392-0.998-0.71-1.469-0.643    C289.832,264.47,289.453,265.118,289.264,265.571z M311.503,284.818c1.989,1.322,2.081,2.92,0.08,4.217    c-1.242,0.802-2.65,1.39-4.046,1.903c-5.349,1.971-10.722,3.874-16.089,5.796c-0.232,0.086-0.478,0.129-0.899,0.245    c0-1.585-0.05-3.012,0.036-4.425c0.019-0.294,0.472-0.686,0.808-0.809c3.881-1.419,7.772-2.79,11.659-4.18    c0.514-0.184,1.046-0.343,1.523-0.606c0.288-0.159,0.478-0.49,0.71-0.747c-0.269-0.208-0.508-0.526-0.813-0.6    c-1.72-0.435-3.415-0.221-5.067,0.354c-2.521,0.876-5.031,1.776-7.546,2.664c-0.374,0.128-0.747,0.238-1.304,0.422    c0-1.707-0.024-3.262,0.03-4.811c0.006-0.208,0.386-0.508,0.648-0.587c6.586-2.075,13.098-2.007,19.499,0.741    C311.008,284.5,311.259,284.653,311.503,284.818z"
         id="path8" /><path
         d="M87.26,199.616c-2.179-1.096-13.421-2.656-19.088-2.656c-0.446,0-0.851,0.012-1.181,0.037    c-2.442,0.171-3.684,4.4-3.69,12.571c0.006,8.207,1.242,12.436,3.69,12.613c0.331,0.024,0.716,0.037,1.157,0.037    c5.673,0,16.928-1.567,19.113-2.662c1.365-0.68,5.318-5.398,8.678-9.97C92.285,204.61,88.503,200.234,87.26,199.616z"
         id="path10" /><path
         d="M507.839,129.518c-1.297-1.995-3.831-3.678-7.179-5.08v-5.202c0,0-29.749-20.067-69.211-3.751    c0,0-1.255,1.065-1.738,6.591c-2.484,0.551-4.639,1.181-6.389,1.891c-7.669,3.103-12.564,2.283-12.564,2.283h-26.781    c0.973,2.075,1.561,4.364,1.561,6.805v82.62c0,8.886-7.228,16.114-16.114,16.114H204.942c-8.886,0-16.114-7.228-16.114-16.114    v-82.62c0-2.441,0.587-4.73,1.561-6.805h-25.753c0,0-4.896,0.814-12.564-2.283c-1.756-0.71-3.911-1.34-6.396-1.891    c-0.49-5.526-1.738-6.591-1.738-6.591c-39.461-16.316-69.211,3.751-69.211,3.751v5.202c-3.348,1.401-5.881,3.079-7.179,5.08    c0,0-24.804,37.204-31.983,62.657c-7.179,25.453-41.769,168.398-34.59,223.221c7.179,54.829,90.074,68.532,111.61,25.453    c6.15-12.301,11.689-25.324,16.506-37.687v-32.105c0-20.569,16.738-37.308,37.307-37.308h233.967    c18.514,0,33.924,13.556,36.818,31.261c9.921,4.621,16.854,14.713,16.854,26.243v9.749c0,4.749-1.23,9.229-3.305,13.207    c3.696,8.923,7.729,17.962,12.068,26.646c21.543,43.078,104.432,29.369,111.61-25.453c7.179-54.829-27.411-197.769-34.59-223.222    C532.644,166.721,507.839,129.518,507.839,129.518z M466.505,144.285c12.79,0,23.2,10.41,23.2,23.201    c0,12.791-10.41,23.201-23.2,23.201c-12.791,0-23.201-10.41-23.201-23.201C443.304,154.695,453.714,144.285,466.505,144.285z     M394.104,146.819c0-6.188,5.031-11.218,11.219-11.218c6.187,0,11.218,5.031,11.218,11.218v13.703    c0,6.188-5.031,11.218-11.218,11.218c-6.188,0-11.219-5.03-11.219-11.218V146.819z M157.824,146.819    c0-6.188,5.03-11.218,11.218-11.218s11.218,5.031,11.218,11.218v13.703c0,6.188-5.03,11.218-11.218,11.218    s-11.218-5.03-11.218-11.218V146.819z M87.989,169.444c0.673-9.357,13.292-9.363,18.678-9.37    c5.435,0.006,18.054,0.012,18.721,9.37c0.318,4.419-1.194,19.333-3.25,23.452c-1.781,3.556-10.483,9.938-13.452,12.044    c-0.159,0.135-0.336,0.263-0.526,0.367c-0.459,0.245-0.961,0.374-1.463,0.374c-0.085,0-0.159-0.006-0.238-0.012    c-0.484-0.037-0.955-0.184-1.383-0.447c-0.135-0.086-0.269-0.171-0.386-0.282c-2.968-2.111-11.652-8.476-13.433-12.038    C89.2,188.79,87.683,173.869,87.989,169.444z M66.55,228.282c-9.357-0.673-9.364-13.293-9.37-18.678    c0.006-5.435,0.012-18.054,9.37-18.721c0.459-0.031,1.004-0.049,1.622-0.049c5.214,0,18.011,1.396,21.824,3.299    c3.562,1.774,9.945,10.483,12.05,13.452c0.135,0.159,0.263,0.336,0.367,0.526c0.281,0.532,0.404,1.126,0.361,1.701    c-0.037,0.483-0.184,0.955-0.447,1.383c-0.085,0.134-0.171,0.269-0.281,0.385c-2.111,2.968-8.482,11.653-12.044,13.434    c-3.819,1.909-16.634,3.305-21.848,3.305C67.548,228.331,67.009,228.312,66.55,228.282z M125.388,249.727    c-0.661,9.352-13.287,9.357-18.678,9.364h-0.019c-5.416-0.006-18.023-0.012-18.703-9.364c-0.312-4.431,1.206-19.345,3.256-23.452    c1.781-3.568,10.483-9.945,13.445-12.057c0.178-0.153,0.379-0.288,0.606-0.392c0.128-0.067,0.263-0.128,0.398-0.165    c0.814-0.27,1.689-0.221,2.454,0.189c0.227,0.123,0.435,0.27,0.624,0.441c3.06,2.172,11.604,8.458,13.36,11.983    C124.188,230.394,125.7,245.308,125.388,249.727z M146.838,228.282c-0.459,0.03-0.998,0.049-1.603,0.049    c-5.221,0-18.036-1.401-21.854-3.305c-3.562-1.781-9.933-10.471-12.044-13.439c-0.098-0.116-0.184-0.239-0.269-0.374    c-0.38-0.612-0.526-1.322-0.441-2.007c0.043-0.373,0.153-0.734,0.343-1.077c0.11-0.208,0.239-0.392,0.386-0.569    c2.129-2.992,8.482-11.646,12.026-13.421c3.812-1.91,16.616-3.299,21.83-3.299c0.618,0,1.157,0.019,1.628,0.049    c9.352,0.661,9.358,13.287,9.364,18.679C156.196,214.989,156.19,227.609,146.838,228.282z M190.896,323.173    c-18.403,0-33.373-14.97-33.373-33.372c0-18.41,14.97-33.379,33.373-33.379c18.409,0,33.378,14.97,33.378,33.379    C224.275,308.204,209.305,323.173,190.896,323.173z M287.183,314.856c-19.113,0-34.658-15.545-34.658-34.658    s15.545-34.658,34.658-34.658c19.112,0,34.657,15.545,34.657,34.658S306.295,314.856,287.183,314.856z M378.486,323.173    c-18.408,0-33.378-14.97-33.378-33.372c0-18.41,14.97-33.379,33.378-33.379c18.403,0,33.373,14.97,33.373,33.379    C411.859,308.204,396.89,323.173,378.486,323.173z M426.412,230.779c-12.79,0-23.2-10.41-23.2-23.201s10.409-23.201,23.2-23.201    s23.201,10.41,23.201,23.201S439.209,230.779,426.412,230.779z M466.505,270.865c-12.791,0-23.201-10.41-23.201-23.201    c0-12.791,10.41-23.201,23.201-23.201c12.79,0,23.2,10.41,23.2,23.201C489.705,260.455,479.295,270.865,466.505,270.865z     M506.591,230.779c-12.791,0-23.201-10.41-23.201-23.201s10.41-23.201,23.201-23.201s23.2,10.41,23.2,23.201    C529.798,220.369,519.388,230.779,506.591,230.779z"
         id="path12" /><circle
         cx="506.591"
         cy="207.578"
         r="17.081"
         id="circle14" /><path
         d="M378.486,262.542c-15.03,0-27.258,12.228-27.258,27.259c0,15.024,12.228,27.252,27.258,27.252    c15.025,0,27.253-12.228,27.253-27.252C405.739,274.77,393.512,262.542,378.486,262.542z"
         id="path16" /><circle
         cx="466.505"
         cy="247.664"
         r="17.081"
         id="circle18" /><circle
         cx="426.412"
         cy="207.578"
         r="17.081"
         id="circle20" /><path
         d="M146.398,196.997c-0.343-0.024-0.741-0.037-1.188-0.037c-5.673,0-16.916,1.561-19.094,2.656    c-1.242,0.624-5.024,4.994-8.672,9.969c3.36,4.572,7.313,9.296,8.672,9.97c2.185,1.095,13.439,2.662,19.119,2.662    c0.434,0,0.832-0.012,1.163-0.037c2.436-0.171,3.678-4.407,3.684-12.571C150.076,201.397,148.84,197.168,146.398,196.997z"
         id="path22" /><path
         d="M405.323,165.62c2.809,0,5.098-2.289,5.098-5.098v-13.703c0-2.809-2.289-5.098-5.098-5.098    c-2.81,0-5.099,2.289-5.099,5.098v13.703C400.225,163.331,402.514,165.62,405.323,165.62z"
         id="path24" /><path
         d="M106.691,198.833c4.969-3.647,9.345-7.43,9.969-8.672c1.23-2.46,2.944-15.729,2.62-20.275    c-0.171-2.442-4.4-3.685-12.57-3.69c-8.207,0.006-12.436,1.242-12.614,3.69c-0.324,4.547,1.396,17.821,2.625,20.275    C97.395,191.513,102.12,195.473,106.691,198.833z"
         id="path26" /><circle
         cx="466.505"
         cy="167.486"
         r="17.081"
         id="circle28" /><path
         d="M169.042,165.62c2.809,0,5.098-2.289,5.098-5.098v-13.703c0-2.809-2.289-5.098-5.098-5.098s-5.098,2.289-5.098,5.098    v13.703C163.944,163.331,166.233,165.62,169.042,165.62z"
         id="path30" /><path
         d="m 425.439,374.582 v -3.52 c 0,-12.387 -9.003,-22.607 -20.809,-24.639 -1.389,-0.239 -2.803,-0.429 -4.259,-0.429 h -45.968 -133.41 -51.139 -3.458 c -9.547,0 -17.748,5.397 -21.983,13.256 -1.426,2.65 -2.375,5.563 -2.772,8.685 -0.128,1.034 -0.318,2.056 -0.318,3.134 v 50.128 c 0,13.844 11.224,25.068 25.068,25.068 h 233.967 c 13.844,0 25.067,-11.225 25.067,-25.068 v -3.519 c 9.064,-0.189 16.365,-7.564 16.365,-16.677 v -9.731 -0.018 c 0,-3.923 -1.414,-7.479 -3.678,-10.324 -2.985,-3.758 -7.513,-6.243 -12.673,-6.346 z"
         id="path32"
         inkscape:connector-curvature="0"
         sodipodi:nodetypes="cscscccsccssssscscscc"
         style="fill:url(#linearGradient4588);fill-opacity:1" /><rect
         id="rect3777"
         width="238.77127"
         height="61.201283"
         x="161.19215"
         y="365.92239"
         style="fill:#000000;fill-opacity:0;fill-rule:nonzero" /><rect
         style="fill:#ffffff;fill-opacity:1;fill-rule:nonzero;stroke:none;stroke-width:0.15490006;stroke-linecap:round;stroke-linejoin:round;stroke-miterlimit:4;stroke-dasharray:none;paint-order:normal"
         id="rect4590"
         width="123.34645"
         height="70.039322"
         x="285.45496"
         y="361.96051"
         ry="11.900726" /><rect
         ry="0"
         y="361.96512"
         x="285.0267"
         height="70.025467"
         width="12.400027"
         id="rect4647"
         style="fill:#ffffff;fill-opacity:1;fill-rule:nonzero;stroke:none;stroke-width:0.0680718;stroke-linecap:round;stroke-linejoin:round;stroke-miterlimit:4;stroke-dasharray:none;paint-order:normal" /></g></g><g
     id="g38" /><g
     id="g40" /><g
     id="g42" /><g
     id="g44" /><g
     id="g46" /><g
     id="g48" /><g
     id="g50" /><g
     id="g52" /><g
     id="g54" /><g
     id="g56" /><g
     id="g58" /><g
     id="g60" /><g
     id="g62" /><g
     id="g64" /><g
     id="g66" /></svg>