<?xml version="1.0" encoding="UTF-8" standalone="no"?>
<svg
   xmlns:dc="http://purl.org/dc/elements/1.1/"
   xmlns:cc="http://creativecommons.org/ns#"
   xmlns:rdf="http://www.w3.org/1999/02/22-rdf-syntax-ns#"
   xmlns:svg="http://www.w3.org/2000/svg"
   xmlns="http://www.w3.org/2000/svg"
   xml:space="preserve"
   style="enable-background:new 0 0 575.387 575.386;"
   viewBox="0 0 575.387 575.386"
   height="575.386px"
   width="575.387px"
   y="0px"
   x="0px"
   id="Capa_1"
   version="1.1"><metadata
     id="metadata73"><rdf:RDF><cc:Work
         rdf:about=""><dc:format>image/svg+xml</dc:format><dc:type
           rdf:resource="http://purl.org/dc/dcmitype/StillImage" /><dc:title></dc:title></cc:Work></rdf:RDF></metadata><defs
     id="defs71" /><g
     id="g36"><g
       style="display:inline"
       id="g34"><path
         style="display:inline"
         id="path2"
         d="m 106.691,220.332 c -4.572,3.36 -9.29,7.313 -9.97,8.678 -1.23,2.454 -2.943,15.722 -2.625,20.276 0.171,2.436 4.407,3.678 12.571,3.684 l 0.043,3.06 v -3.06 c 8.17,-0.006 12.393,-1.242 12.57,-3.684 0.331,-4.547 -1.389,-17.81 -2.62,-20.276 -0.623,-1.242 -4.999,-5.024 -9.969,-8.678 z" /><path
         style="display:inline"
         id="path4"
         d="m 194.948,133.061 v 82.62 c 0,5.508 4.48,9.994 9.994,9.994 h 164.481 c 5.508,0 9.994,-4.479 9.994,-9.994 v -82.62 c 0,-2.631 -1.047,-5.019 -2.718,-6.805 h -179.04 c -1.664,1.786 -2.711,4.167 -2.711,6.805 z" /><path
         style="display:inline"
         id="path6"
         d="m 190.896,262.542 c -15.024,0 -27.252,12.228 -27.252,27.259 0,15.024 12.228,27.252 27.252,27.252 15.031,0 27.258,-12.228 27.258,-27.252 0.001,-15.031 -12.227,-27.259 -27.258,-27.259 z" /><path
         style="display:inline"
         id="path8"
         d="m 287.183,248.594 c -17.424,0 -31.598,14.174 -31.598,31.598 0,17.424 14.174,31.598 31.598,31.598 17.424,0 31.598,-14.174 31.598,-31.598 -0.001,-17.423 -14.175,-31.598 -31.598,-31.598 z m -8.103,43.471 c -0.012,0.215 -0.453,0.545 -0.734,0.594 -4.982,0.832 -9.835,0.3 -14.541,-1.523 -0.404,-0.159 -0.784,-0.398 -1.139,-0.649 -1.793,-1.267 -1.787,-2.949 0.043,-4.125 0.795,-0.509 1.646,-0.979 2.528,-1.304 4.522,-1.671 9.069,-3.287 13.849,-5.006 0,1.677 0.031,3.225 -0.037,4.767 -0.012,0.208 -0.502,0.472 -0.814,0.588 -2.503,0.918 -5.024,1.793 -7.527,2.717 -0.582,0.215 -1.108,0.576 -1.659,0.863 0.012,0.141 0.024,0.281 0.037,0.422 0.551,0.19 1.114,0.576 1.646,0.539 1.548,-0.11 3.109,-0.288 4.621,-0.624 1.224,-0.275 2.393,-0.82 3.77,-1.316 -0.007,1.456 0.024,2.76 -0.043,4.057 z m 10.184,-26.494 c -0.172,0.416 -0.129,0.93 -0.129,1.408 -0.006,9.694 0,19.388 0,29.083 0,0.459 0,0.924 0,1.554 -2.846,-0.899 -5.483,-1.731 -8.115,-2.595 -0.208,-0.067 -0.392,-0.397 -0.459,-0.637 -0.08,-0.306 -0.031,-0.654 -0.031,-0.985 0.012,-11.451 0.025,-22.901 0.037,-34.352 0,-0.398 0,-0.795 0,-1.346 0.783,0.153 1.462,0.238 2.111,0.428 3.715,1.089 7.429,2.172 11.126,3.329 0.967,0.3 1.878,0.814 2.771,1.31 2.92,1.622 4.603,4.094 5.025,7.417 0.287,2.301 0.392,4.584 -0.35,6.836 -1.261,3.807 -4.761,4.877 -8.451,3.121 -0.288,-0.135 -0.472,-0.765 -0.478,-1.169 -0.03,-3.88 0.012,-7.754 -0.043,-11.634 -0.012,-0.765 -0.227,-1.609 -0.605,-2.264 -0.227,-0.392 -0.998,-0.71 -1.469,-0.643 -0.372,0.038 -0.751,0.686 -0.94,1.139 z m 22.239,19.247 c 1.989,1.322 2.081,2.92 0.08,4.217 -1.242,0.802 -2.65,1.39 -4.046,1.903 -5.349,1.971 -10.722,3.874 -16.089,5.796 -0.232,0.086 -0.478,0.129 -0.899,0.245 0,-1.585 -0.05,-3.012 0.036,-4.425 0.019,-0.294 0.472,-0.686 0.808,-0.809 3.881,-1.419 7.772,-2.79 11.659,-4.18 0.514,-0.184 1.046,-0.343 1.523,-0.606 0.288,-0.159 0.478,-0.49 0.71,-0.747 -0.269,-0.208 -0.508,-0.526 -0.813,-0.6 -1.72,-0.435 -3.415,-0.221 -5.067,0.354 -2.521,0.876 -5.031,1.776 -7.546,2.664 -0.374,0.128 -0.747,0.238 -1.304,0.422 0,-1.707 -0.024,-3.262 0.03,-4.811 0.006,-0.208 0.386,-0.508 0.648,-0.587 6.586,-2.075 13.098,-2.007 19.499,0.741 0.276,0.105 0.527,0.258 0.771,0.423 z" /><path
         id="path10"
         d="m 87.26,199.616 c -2.179,-1.096 -13.421,-2.656 -19.088,-2.656 -0.446,0 -0.851,0.012 -1.181,0.037 -2.442,0.171 -3.684,4.4 -3.69,12.571 0.006,8.207 1.242,12.436 3.69,12.613 0.331,0.024 0.716,0.037 1.157,0.037 5.673,0 16.928,-1.567 19.113,-2.662 1.365,-0.68 5.318,-5.398 8.678,-9.97 -3.654,-4.976 -7.436,-9.352 -8.679,-9.97 z" /><path
         id="path12"
         d="m 507.839,129.518 c -1.297,-1.995 -3.831,-3.678 -7.179,-5.08 v -5.202 c 0,0 -29.749,-20.067 -69.211,-3.751 0,0 -1.255,1.065 -1.738,6.591 -2.484,0.551 -4.639,1.181 -6.389,1.891 -7.669,3.103 -12.564,2.283 -12.564,2.283 h -26.781 c 0.973,2.075 1.561,4.364 1.561,6.805 v 82.62 c 0,8.886 -7.228,16.114 -16.114,16.114 H 204.942 c -8.886,0 -16.114,-7.228 -16.114,-16.114 v -82.62 c 0,-2.441 0.587,-4.73 1.561,-6.805 h -25.753 c 0,0 -4.896,0.814 -12.564,-2.283 -1.756,-0.71 -3.911,-1.34 -6.396,-1.891 -0.49,-5.526 -1.738,-6.591 -1.738,-6.591 -39.461,-16.316 -69.211,3.751 -69.211,3.751 v 5.202 c -3.348,1.401 -5.881,3.079 -7.179,5.08 0,0 -24.804,37.204 -31.983,62.657 -7.179,25.453 -41.769,168.398 -34.59,223.221 7.179,54.829 90.074,68.532 111.61,25.453 6.15,-12.301 11.689,-25.324 16.506,-37.687 v -32.105 c 0,-20.569 16.738,-37.308 37.307,-37.308 h 233.967 c 18.514,0 33.924,13.556 36.818,31.261 9.921,4.621 16.854,14.713 16.854,26.243 v 9.749 c 0,4.749 -1.23,9.229 -3.305,13.207 3.696,8.923 7.729,17.962 12.068,26.646 21.543,43.078 104.432,29.369 111.61,-25.453 7.179,-54.829 -27.411,-197.769 -34.59,-223.222 -7.176,-25.459 -31.981,-62.662 -31.981,-62.662 z m -41.334,14.767 c 12.79,0 23.2,10.41 23.2,23.201 0,12.791 -10.41,23.201 -23.2,23.201 -12.791,0 -23.201,-10.41 -23.201,-23.201 0,-12.791 10.41,-23.201 23.201,-23.201 z m -72.401,2.534 c 0,-6.188 5.031,-11.218 11.219,-11.218 6.187,0 11.218,5.031 11.218,11.218 v 13.703 c 0,6.188 -5.031,11.218 -11.218,11.218 -6.188,0 -11.219,-5.03 -11.219,-11.218 z m -236.28,0 c 0,-6.188 5.03,-11.218 11.218,-11.218 6.188,0 11.218,5.031 11.218,11.218 v 13.703 c 0,6.188 -5.03,11.218 -11.218,11.218 -6.188,0 -11.218,-5.03 -11.218,-11.218 z m -69.835,22.625 c 0.673,-9.357 13.292,-9.363 18.678,-9.37 5.435,0.006 18.054,0.012 18.721,9.37 0.318,4.419 -1.194,19.333 -3.25,23.452 -1.781,3.556 -10.483,9.938 -13.452,12.044 -0.159,0.135 -0.336,0.263 -0.526,0.367 -0.459,0.245 -0.961,0.374 -1.463,0.374 -0.085,0 -0.159,-0.006 -0.238,-0.012 -0.484,-0.037 -0.955,-0.184 -1.383,-0.447 -0.135,-0.086 -0.269,-0.171 -0.386,-0.282 -2.968,-2.111 -11.652,-8.476 -13.433,-12.038 C 89.2,188.79 87.683,173.869 87.989,169.444 Z M 66.55,228.282 c -9.357,-0.673 -9.364,-13.293 -9.37,-18.678 0.006,-5.435 0.012,-18.054 9.37,-18.721 0.459,-0.031 1.004,-0.049 1.622,-0.049 5.214,0 18.011,1.396 21.824,3.299 3.562,1.774 9.945,10.483 12.05,13.452 0.135,0.159 0.263,0.336 0.367,0.526 0.281,0.532 0.404,1.126 0.361,1.701 -0.037,0.483 -0.184,0.955 -0.447,1.383 -0.085,0.134 -0.171,0.269 -0.281,0.385 -2.111,2.968 -8.482,11.653 -12.044,13.434 -3.819,1.909 -16.634,3.305 -21.848,3.305 -0.606,0.012 -1.145,-0.007 -1.604,-0.037 z m 58.838,21.445 c -0.661,9.352 -13.287,9.357 -18.678,9.364 h -0.019 c -5.416,-0.006 -18.023,-0.012 -18.703,-9.364 -0.312,-4.431 1.206,-19.345 3.256,-23.452 1.781,-3.568 10.483,-9.945 13.445,-12.057 0.178,-0.153 0.379,-0.288 0.606,-0.392 0.128,-0.067 0.263,-0.128 0.398,-0.165 0.814,-0.27 1.689,-0.221 2.454,0.189 0.227,0.123 0.435,0.27 0.624,0.441 3.06,2.172 11.604,8.458 13.36,11.983 2.057,4.12 3.569,19.034 3.257,23.453 z m 21.45,-21.445 c -0.459,0.03 -0.998,0.049 -1.603,0.049 -5.221,0 -18.036,-1.401 -21.854,-3.305 -3.562,-1.781 -9.933,-10.471 -12.044,-13.439 -0.098,-0.116 -0.184,-0.239 -0.269,-0.374 -0.38,-0.612 -0.526,-1.322 -0.441,-2.007 0.043,-0.373 0.153,-0.734 0.343,-1.077 0.11,-0.208 0.239,-0.392 0.386,-0.569 2.129,-2.992 8.482,-11.646 12.026,-13.421 3.812,-1.91 16.616,-3.299 21.83,-3.299 0.618,0 1.157,0.019 1.628,0.049 9.352,0.661 9.358,13.287 9.364,18.679 -0.008,5.421 -0.014,18.041 -9.366,18.714 z m 44.058,94.891 c -18.403,0 -33.373,-14.97 -33.373,-33.372 0,-18.41 14.97,-33.379 33.373,-33.379 18.409,0 33.378,14.97 33.378,33.379 0.001,18.403 -14.969,33.372 -33.378,33.372 z m 96.287,-8.317 c -19.113,0 -34.658,-15.545 -34.658,-34.658 0,-19.113 15.545,-34.658 34.658,-34.658 19.112,0 34.657,15.545 34.657,34.658 0,19.113 -15.545,34.658 -34.657,34.658 z m 91.303,8.317 c -18.408,0 -33.378,-14.97 -33.378,-33.372 0,-18.41 14.97,-33.379 33.378,-33.379 18.403,0 33.373,14.97 33.373,33.379 0,18.403 -14.969,33.372 -33.373,33.372 z m 47.926,-92.394 c -12.79,0 -23.2,-10.41 -23.2,-23.201 0,-12.791 10.409,-23.201 23.2,-23.201 12.791,0 23.201,10.41 23.201,23.201 0,12.791 -10.404,23.201 -23.201,23.201 z m 40.093,40.086 c -12.791,0 -23.201,-10.41 -23.201,-23.201 0,-12.791 10.41,-23.201 23.201,-23.201 12.79,0 23.2,10.41 23.2,23.201 0,12.791 -10.41,23.201 -23.2,23.201 z m 40.086,-40.086 c -12.791,0 -23.201,-10.41 -23.201,-23.201 0,-12.791 10.41,-23.201 23.201,-23.201 12.791,0 23.2,10.41 23.2,23.201 0.007,12.791 -10.403,23.201 -23.2,23.201 z" /><circle
         style="display:inline"
         id="circle14"
         r="17.080999"
         cy="207.578"
         cx="506.591" /><path
         style="display:inline"
         id="path16"
         d="m 378.486,262.542 c -15.03,0 -27.258,12.228 -27.258,27.259 0,15.024 12.228,27.252 27.258,27.252 15.025,0 27.253,-12.228 27.253,-27.252 0,-15.031 -12.227,-27.259 -27.253,-27.259 z" /><circle
         style="display:inline"
         id="circle18"
         r="17.080999"
         cy="247.664"
         cx="466.505" /><circle
         style="display:inline"
         id="circle20"
         r="17.080999"
         cy="207.578"
         cx="426.41199" /><path
         style="display:inline"
         id="path22"
         d="m 146.398,196.997 c -0.343,-0.024 -0.741,-0.037 -1.188,-0.037 -5.673,0 -16.916,1.561 -19.094,2.656 -1.242,0.624 -5.024,4.994 -8.672,9.969 3.36,4.572 7.313,9.296 8.672,9.97 2.185,1.095 13.439,2.662 19.119,2.662 0.434,0 0.832,-0.012 1.163,-0.037 2.436,-0.171 3.678,-4.407 3.684,-12.571 -0.006,-8.212 -1.242,-12.441 -3.684,-12.612 z" /><path
         style="display:inline"
         id="path24"
         d="m 405.323,165.62 c 2.809,0 5.098,-2.289 5.098,-5.098 v -13.703 c 0,-2.809 -2.289,-5.098 -5.098,-5.098 -2.81,0 -5.099,2.289 -5.099,5.098 v 13.703 c 0.001,2.809 2.29,5.098 5.099,5.098 z" /><path
         style="display:inline"
         id="path26"
         d="m 106.691,198.833 c 4.969,-3.647 9.345,-7.43 9.969,-8.672 1.23,-2.46 2.944,-15.729 2.62,-20.275 -0.171,-2.442 -4.4,-3.685 -12.57,-3.69 -8.207,0.006 -12.436,1.242 -12.614,3.69 -0.324,4.547 1.396,17.821 2.625,20.275 0.674,1.352 5.399,5.312 9.97,8.672 z" /><circle
         id="circle28"
         r="17.080999"
         cy="167.48599"
         cx="466.505" /><path
         style="display:inline"
         id="path30"
         d="m 169.042,165.62 c 2.809,0 5.098,-2.289 5.098,-5.098 v -13.703 c 0,-2.809 -2.289,-5.098 -5.098,-5.098 -2.809,0 -5.098,2.289 -5.098,5.098 v 13.703 c 0,2.809 2.289,5.098 5.098,5.098 z" /><path
         style="display:inline"
         id="path32"
         d="m 425.439,374.582 v -3.52 c 0,-12.387 -9.003,-22.607 -20.809,-24.639 -1.389,-0.239 -2.803,-0.429 -4.259,-0.429 h -45.968 -133.41 -51.139 -3.458 c -9.547,0 -17.748,5.397 -21.983,13.256 -1.426,2.65 -2.375,5.563 -2.772,8.685 -0.128,1.034 -0.318,2.056 -0.318,3.134 v 50.128 c 0,13.844 11.224,25.068 25.068,25.068 h 233.967 c 13.844,0 25.067,-11.225 25.067,-25.068 v -3.519 c 9.064,-0.189 16.365,-7.564 16.365,-16.677 v -9.731 -0.018 c 0,-3.923 -1.414,-7.479 -3.678,-10.324 -2.985,-3.758 -7.513,-6.243 -12.673,-6.346 z m -16.15884,41.309 c 0,8.061 -6.53,14.59 -14.59,14.59 H 284.14 v -68.703 h 110.55016 c 8.06,0 14.59,6.536 14.59,14.591 z" /></g></g><g
     id="g38" /><g
     id="g40" /><g
     id="g42" /><g
     id="g44" /><g
     id="g46" /><g
     id="g48" /><g
     id="g50" /><g
     id="g52" /><g
     id="g54" /><g
     id="g56" /><g
     id="g58" /><g
     id="g60" /><g
     id="g62" /><g
     style="display:inline"
     id="g64" /><g
     style="display:inline"
     id="g66" /></svg>